# xmcd
#
# Track frame offsets: 
#        150
#        16005
#        38567
#        57420
#        73320
#        95247
#        113302
#        136625
#        153590
#        170670
#        184117
#        205480
#
# Disc length: 3041 seconds
#
# Revision: 1
# Processed by: cddbd v1.5.1PL0 Copyright (c) Steve Scherf et al.
# Submitted via: ExactAudioCopy v0.95a5
#
DISCID=a10bdf0c
DTITLE=Neal Casal - Anytime Tomorrow
DYEAR=2000
DGENRE=Rock
TTITLE0=Willow Jane
TTITLE1=Fell On Hard Times
TTITLE2=Luckystars
TTITLE3=Sweetvine
TTITLE4=Oceanview
TTITLE5=No One Above You
TTITLE6=Eddy and Diamonds
TTITLE7=Just Getting By
TTITLE8=Camarillo
TTITLE9=Time Down The Wind
TTITLE10=Raining Straight Down
TTITLE11=Too Much To Ask
EXTD=
EXTT0=
EXTT1=
EXTT2=
EXTT3=
EXTT4=
EXTT5=
EXTT6=
EXTT7=
EXTT8=
EXTT9=
EXTT10=
EXTT11=
PLAYORDER=
